<?xml version="1.0" standalone="no"?>
<!DOCTYPE svg PUBLIC "-//W3C//DTD SVG 20010904//EN"
 "http://www.w3.org/TR/2001/REC-SVG-20010904/DTD/svg10.dtd">
<svg version="1.0" xmlns="http://www.w3.org/2000/svg"
 width="700.000000pt" height="700.000000pt" viewBox="0 0 700.000000 700.000000"
 preserveAspectRatio="xMidYMid meet">
<metadata>
Created by potrace 1.14, written by Peter Selinger 2001-2017
</metadata>
<g transform="translate(0.000000,700.000000) scale(0.100000,-0.100000)"
fill="#000000" stroke="none">
<path d="M3427 6344 c-1 -1 -49 -4 -107 -8 -58 -3 -121 -8 -140 -11 -19 -2
-55 -7 -80 -10 -46 -6 -77 -11 -120 -20 -14 -3 -41 -8 -60 -11 -55 -10 -238
-60 -326 -89 -273 -92 -553 -239 -782 -409 -539 -401 -904 -947 -1061 -1588
-54 -220 -60 -279 -31 -345 24 -57 47 -82 104 -110 l38 -20 -47 -13 c-55 -15
-119 -72 -141 -126 -29 -69 -18 -152 28 -216 24 -34 376 -272 477 -322 100
-51 226 -79 351 -79 58 0 116 3 130 6 113 23 198 56 300 114 101 58 155 73
250 69 67 -2 87 -8 146 -39 220 -117 313 -147 464 -150 52 0 118 2 146 6 84
11 204 55 304 112 52 30 115 59 140 64 106 24 202 7 302 -53 277 -168 586
-174 863 -15 117 67 170 83 263 76 73 -5 104 -17 257 -98 33 -17 67 -35 76
-39 8 -4 55 -18 105 -30 173 -44 368 -26 529 49 108 51 466 290 496 332 52 73
54 176 4 251 -27 40 -103 90 -141 92 -27 2 -46 16 -20 16 28 0 93 49 122 93
25 36 28 52 28 112 0 39 -3 84 -7 100 -8 37 -16 72 -22 105 -2 14 -13 59 -24
100 -247 933 -957 1675 -1886 1971 -97 31 -273 76 -333 85 -20 3 -44 7 -52 9
-8 2 -42 7 -75 11 -33 3 -69 8 -80 10 -36 8 -382 23 -388 18z m288 -448 c44
-4 91 -9 105 -11 94 -14 124 -19 200 -36 594 -132 1113 -483 1463 -989 90
-131 151 -242 229 -420 33 -73 99 -273 93 -279 -6 -5 -4615 -9 -4615 -3 0 9
74 229 79 237 4 6 16 33 26 60 30 82 122 252 200 370 240 362 563 646 949 834
194 95 472 188 620 207 15 2 35 5 45 8 16 5 83 12 216 25 85 8 280 6 390 -3z
m2348 -2188 c-18 -4 -106 -57 -195 -117 -233 -154 -242 -160 -303 -175 -64
-17 -163 -14 -220 7 -22 8 -71 33 -110 56 -142 84 -288 121 -450 116 -150 -5
-258 -37 -406 -122 -96 -56 -162 -73 -251 -68 -72 5 -109 19 -248 97 -94 53
-225 89 -340 92 -174 6 -308 -27 -460 -113 -101 -57 -140 -71 -218 -76 -72 -5
-147 14 -215 54 -154 92 -279 131 -434 136 -167 4 -296 -29 -447 -116 -106
-61 -180 -81 -265 -74 -90 8 -126 26 -338 166 -106 71 -207 132 -225 137 -20
6 1009 9 2562 9 1525 0 2582 -3 2563 -9z"/>
<path d="M3424 5454 c-56 -20 -110 -76 -128 -133 -22 -66 -21 -527 2 -586 72
-189 353 -180 410 13 16 54 14 526 -2 574 -39 112 -171 174 -282 132z"/>
<path d="M2311 5228 c-49 -26 -99 -84 -112 -130 -5 -22 -10 -150 -10 -292 -1
-231 1 -258 19 -298 64 -143 238 -177 350 -68 64 63 68 89 67 385 -1 245 -3
262 -23 301 -55 107 -189 154 -291 102z"/>
<path d="M4525 5239 c-44 -12 -102 -65 -127 -112 -20 -39 -22 -57 -23 -287 0
-135 3 -265 7 -290 30 -162 226 -229 351 -120 75 66 79 86 79 386 -1 248 -2
264 -23 308 -46 99 -156 147 -264 115z"/>
<path d="M960 2828 c-293 -63 -505 -312 -518 -608 -5 -122 15 -218 68 -325 65
-132 186 -249 316 -305 l50 -22 -1 -87 c-3 -232 76 -429 234 -588 112 -112
255 -189 407 -220 84 -17 199 -18 1994 -17 2137 0 1988 -5 2156 74 287 133
452 392 458 719 l2 115 79 40 c112 57 226 172 282 283 175 344 20 764 -335
908 -123 50 -28 48 -2651 49 -2271 1 -2469 0 -2541 -16z m5031 -440 c20 -9 50
-30 68 -47 89 -87 84 -236 -11 -316 -70 -59 110 -55 -2540 -55 -1582 0 -2456
4 -2479 10 -79 22 -151 117 -154 204 -3 87 68 184 151 209 36 10 508 13 2487
12 2210 -1 2445 -2 2478 -17z m-305 -940 c-6 -99 -24 -157 -71 -216 -43 -56
-96 -95 -160 -118 -47 -17 -149 -18 -1940 -19 -2062 -2 -1940 -5 -2035 56
-106 66 -159 165 -165 302 l-4 77 2190 0 2189 0 -4 -82z"/>
</g>
</svg>
